<?xml version="1.0" encoding="UTF-8"?>
<svg id="Capa_1" data-name="Capa 1" xmlns="http://www.w3.org/2000/svg" viewBox="0 0 191.71 192.05">
  <defs>
    <style>
      .cls-1 {
        fill: #2196f2;
      }

      .cls-2 {
        fill: #455a64;
      }

      .cls-3 {
        fill: #fec007;
      }

      .cls-4 {
        fill: #f9f9f9;
      }

      .cls-5 {
        fill: #4cae50;
      }
    </style>
  </defs>
  <path class="cls-3" d="M95.87,0h64.02c.15,.36,.48,.31,.78,.36,15.23,2.64,25.11,11.42,29.73,26.15,.59,1.87,.88,3.83,1.31,5.74v63.77c-22.7,0-45.4,0-68.1,0-9.23,0-18.46-.03-27.69-.04-.02-.81-.05-1.62-.05-2.43,0-31.18,0-62.37,0-93.55Zm47.82,55.98c6.48,0,12.96-.02,19.43,.01,1.84,0,3.32-.52,4.18-2.23,1.42-2.81-.64-5.74-4.08-5.74-12.96-.02-25.91-.02-38.87,0-2.68,0-4.49,1.61-4.52,3.94-.03,2.34,1.74,4,4.42,4.01,6.48,.03,12.96,0,19.43,.01Z"/>
  <path class="cls-2" d="M95.92,95.98c9.23,.01,18.46,.04,27.69,.04,22.7,0,45.4,0,68.1,0v64.52c-.67,.54-.47,1.37-.62,2.05-3.15,14.43-11.8,23.79-25.85,28.15-1.87,.58-3.82,.88-5.73,1.31h-63.64c0-31.98-.02-63.96-.03-95.94l.08-.13Zm63.83,68.15c-.05-1.34-.65-2.3-1.22-3.26-6.5-10.85-13-21.7-19.5-32.55-1.25-2.08-2.45-4.2-3.77-6.24-1.4-2.17-3.89-2.62-5.82-1.16-1.64,1.24-2.09,3.4-.92,5.37,7.92,13.27,15.87,26.52,23.82,39.77,.19,.32,.42,.63,.7,.87,1.28,1.12,2.73,1.46,4.32,.75,1.59-.71,2.29-2.02,2.39-3.54Z"/>
  <path class="cls-5" d="M95.87,0c0,31.18,0,62.37,0,93.55,0,.81,.03,1.62,.05,2.43,0,0-.08,.13-.08,.13-.87-.03-1.74-.08-2.61-.08-31.04,0-62.09,0-93.13,0-.02-.25-.06-.5-.06-.75,0-20.05-.1-40.11,.04-60.16C.19,19.09,11.83,4.79,27.41,1.05c1.36-.33,2.82-.31,4.07-1.05H95.87ZM55.9,66.76c0-2.87,.09-5.75-.04-8.62-.08-1.69,.38-2.24,2.15-2.21,5.86,.11,11.72,.07,17.58,.03,2.48-.02,4.06-1.43,4.22-3.59,.19-2.53-1.51-4.33-4.24-4.35-5.99-.04-11.97-.06-17.96,.02-1.44,.02-1.76-.43-1.75-1.8,.07-5.81,.03-11.62,.03-17.43,0-.94,0-1.87-.48-2.73-.86-1.52-2.63-2.36-4.28-1.99-1.89,.42-3.17,1.96-3.18,4.09-.04,6-.06,12,.02,17.99,.02,1.42-.29,1.91-1.82,1.88-5.8-.1-11.6-.05-17.4-.04-2.88,0-4.7,1.5-4.76,3.89-.07,2.46,1.77,4.06,4.75,4.07,5.8,.02,11.6,.06,17.4-.03,1.52-.02,1.86,.46,1.84,1.9-.08,5.87-.05,11.75-.03,17.62,0,2.75,1.55,4.48,3.93,4.5,2.43,.03,3.97-1.62,4.01-4.39,.04-2.94,0-5.87,.01-8.81Z"/>
  <path class="cls-1" d="M.09,96.02c31.04,0,62.09,0,93.13,0,.87,0,1.74,.05,2.61,.08,0,31.98,.02,63.96,.03,95.94H31.85c-.18-.32-.5-.32-.8-.36C12.65,188.75,.05,174.02,.03,155.41c-.01-14.67,0-29.35,0-44.02,0-5.12,.04-10.24,.06-15.36Zm35.64,24.01c-.22,.05-.65,.11-1.06,.26-2.77,.99-3.53,4.05-1.55,6.57,4.17,5.3,8.36,10.58,12.63,15.79,.91,1.11,.81,1.77-.04,2.82-4.14,5.08-8.2,10.22-12.3,15.34-.88,1.1-1.63,2.23-1.39,3.73,.27,1.7,1.23,2.87,2.89,3.33,1.84,.52,3.29-.22,4.43-1.65,3.43-4.29,6.86-8.58,10.28-12.87q2.32-2.9,4.66,.04c3.46,4.34,6.92,8.69,10.41,13.01,1.16,1.43,2.68,2.04,4.49,1.39,1.7-.61,2.59-1.88,2.69-3.68,.07-1.35-.68-2.36-1.47-3.34-4.06-5.07-8.05-10.18-12.19-15.18-1.03-1.24-.98-2.03,.07-3.14,1.11-1.17,2.05-2.51,3.06-3.78,3.15-3.95,6.34-7.87,9.44-11.86,1.96-2.52,1.12-5.6-1.67-6.55-1.72-.58-3.26-.03-4.71,1.77-3.68,4.57-7.32,9.16-10.99,13.75q-1.49,1.86-3.03-.07c-3.62-4.53-7.25-9.06-10.86-13.61-.94-1.18-2.02-2.02-3.81-2.05Z"/>
  <path class="cls-4" d="M143.69,55.98c-6.48,0-12.96,.02-19.43-.01-2.68-.01-4.45-1.67-4.42-4.01,.03-2.32,1.84-3.94,4.52-3.94,12.96-.01,25.91-.02,38.87,0,3.44,0,5.5,2.94,4.08,5.74-.86,1.71-2.35,2.24-4.18,2.23-6.48-.03-12.96-.01-19.43-.01Z"/>
  <path class="cls-4" d="M159.75,164.14c-.1,1.51-.8,2.83-2.39,3.54-1.6,.72-3.04,.38-4.32-.75-.28-.24-.51-.55-.7-.87-7.95-13.25-15.91-26.5-23.82-39.77-1.17-1.97-.72-4.12,.92-5.37,1.93-1.46,4.42-1.01,5.82,1.16,1.32,2.04,2.52,4.16,3.77,6.24,6.5,10.85,13,21.7,19.5,32.55,.58,.97,1.17,1.92,1.22,3.26Z"/>
  <path class="cls-4" d="M55.9,66.76c0,2.94,.03,5.87,0,8.81-.04,2.77-1.58,4.42-4.01,4.39-2.38-.03-3.92-1.75-3.93-4.5-.02-5.87-.05-11.75,.03-17.62,.02-1.44-.32-1.92-1.84-1.9-5.8,.09-11.6,.05-17.4,.03-2.98,0-4.81-1.61-4.75-4.07,.07-2.39,1.88-3.88,4.76-3.89,5.8-.01,11.6-.06,17.4,.04,1.52,.03,1.84-.46,1.82-1.88-.07-6-.05-12-.02-17.99,.01-2.12,1.29-3.67,3.18-4.09,1.65-.36,3.42,.48,4.28,1.99,.49,.86,.48,1.8,.48,2.73,0,5.81,.04,11.62-.03,17.43-.02,1.37,.3,1.82,1.75,1.8,5.99-.08,11.97-.06,17.96-.02,2.74,.02,4.43,1.82,4.24,4.35-.16,2.17-1.74,3.58-4.22,3.59-5.86,.04-11.72,.09-17.58-.03-1.77-.03-2.22,.52-2.15,2.21,.13,2.87,.04,5.75,.03,8.62Z"/>
  <path class="cls-4" d="M35.73,120.04c1.79,.03,2.87,.87,3.81,2.05,3.6,4.55,7.23,9.08,10.86,13.61q1.54,1.93,3.03,.07c3.66-4.58,7.31-9.18,10.99-13.75,1.45-1.8,2.99-2.35,4.71-1.77,2.79,.94,3.63,4.03,1.67,6.55-3.1,3.99-6.29,7.91-9.44,11.86-1.01,1.27-1.95,2.61-3.06,3.78-1.05,1.11-1.1,1.89-.07,3.14,4.13,5,8.13,10.11,12.19,15.18,.79,.99,1.54,2,1.47,3.34-.1,1.8-.98,3.07-2.69,3.68-1.82,.65-3.33,.04-4.49-1.39-3.49-4.32-6.95-8.67-10.41-13.01q-2.35-2.94-4.66-.04c-3.43,4.29-6.85,8.58-10.28,12.87-1.15,1.43-2.59,2.17-4.43,1.65-1.65-.47-2.62-1.63-2.89-3.33-.24-1.5,.51-2.63,1.39-3.73,4.1-5.11,8.15-10.26,12.3-15.34,.86-1.05,.96-1.71,.04-2.82-4.27-5.21-8.46-10.49-12.63-15.79-1.99-2.52-1.23-5.59,1.55-6.57,.4-.14,.84-.2,1.06-.26Z"/>
</svg>